# xmcd
#
# Track frame offsets:
#	182
#	11557
#	26932
#	42982
#	56107
#	66907
#	81457
#	92557
#	107032
#	121057
#	134107
#	147832
#	163207
#
# Disc length: 2379 seconds
#
# Revision: 1
# Processed by: cddbd v1.5.2PL0 Copyright (c) Steve Scherf et al.
# Submitted via: audiograbber 1.83.01
#
DISCID=bf09490d
DTITLE=Ian Betteridge - Lone Star
DYEAR=1900
DGENRE=
TTITLE0=The Bootscootin' Bug
TTITLE1=When She Says Darling
TTITLE2=Let's Go To The Top
TTITLE3=Young Cowboys Game
TTITLE4=Lone Star Dance
TTITLE5=Happy Anniversary
TTITLE6=What A Way To Go
TTITLE7=Country With A Kick
TTITLE8=Alice Springs
TTITLE9=Life's Simple Things
TTITLE10=My Special Place
TTITLE11=I Promise You
TTITLE12=I Promise You (Instrumental)
EXTD=
EXTT0=
EXTT1=
EXTT2=
EXTT3=
EXTT4=
EXTT5=
EXTT6=
EXTT7=
EXTT8=
EXTT9=
EXTT10=
EXTT11=
EXTT12=
PLAYORDER=
